<mxfile host="www.draw.io" modified="2020-02-05T14:49:16.548Z" agent="Mozilla/5.0 (Windows NT 10.0; Win64; x64) AppleWebKit/537.36 (KHTML, like Gecko) Chrome/75.0.3770.142 Safari/537.36" etag="-HD26UNge3Ps-oEKv5F_" version="12.6.5" type="github">
  <diagram id="xSncCHcWC5Hl9VIneyo9" name="第 1 页">
    <mxGraphModel dx="1038" dy="548" grid="1" gridSize="10" guides="1" tooltips="1" connect="1" arrows="1" fold="1" page="1" pageScale="1" pageWidth="827" pageHeight="1169" math="0" shadow="0">
      <root>
        <mxCell id="0"/>
        <mxCell id="1" parent="0"/>
        <mxCell id="Mr9T9dEdlM4_Nd_BWdWu-1" value="" style="line;strokeWidth=2;direction=south;html=1;dashed=1;" vertex="1" parent="1">
          <mxGeometry x="230" y="110" width="10" height="350" as="geometry"/>
        </mxCell>
        <mxCell id="Mr9T9dEdlM4_Nd_BWdWu-2" value="Application Context&lt;br&gt;用户态" style="text;html=1;strokeColor=#82b366;fillColor=#d5e8d4;align=center;verticalAlign=middle;whiteSpace=wrap;rounded=0;dashed=1;" vertex="1" parent="1">
          <mxGeometry x="40" y="70" width="130" height="30" as="geometry"/>
        </mxCell>
        <mxCell id="Mr9T9dEdlM4_Nd_BWdWu-3" value="Kernal Context&lt;br&gt;内核态" style="text;html=1;strokeColor=#b85450;fillColor=#f8cecc;align=center;verticalAlign=middle;whiteSpace=wrap;rounded=0;dashed=1;" vertex="1" parent="1">
          <mxGeometry x="297.5" y="70" width="130" height="30" as="geometry"/>
        </mxCell>
        <mxCell id="Mr9T9dEdlM4_Nd_BWdWu-4" style="edgeStyle=orthogonalEdgeStyle;rounded=0;orthogonalLoop=1;jettySize=auto;html=1;entryX=0.5;entryY=0;entryDx=0;entryDy=0;" edge="1" parent="1" source="Mr9T9dEdlM4_Nd_BWdWu-6" target="Mr9T9dEdlM4_Nd_BWdWu-9">
          <mxGeometry relative="1" as="geometry"/>
        </mxCell>
        <mxCell id="Mr9T9dEdlM4_Nd_BWdWu-5" value="1" style="text;html=1;align=center;verticalAlign=middle;resizable=0;points=[];labelBackgroundColor=#ffffff;" vertex="1" connectable="0" parent="Mr9T9dEdlM4_Nd_BWdWu-4">
          <mxGeometry x="-0.224" relative="1" as="geometry">
            <mxPoint as="offset"/>
          </mxGeometry>
        </mxCell>
        <mxCell id="Mr9T9dEdlM4_Nd_BWdWu-6" value="" style="shape=cylinder;whiteSpace=wrap;html=1;boundedLbl=1;backgroundOutline=1;" vertex="1" parent="1">
          <mxGeometry x="335" y="130" width="55" height="40" as="geometry"/>
        </mxCell>
        <mxCell id="Mr9T9dEdlM4_Nd_BWdWu-21" style="edgeStyle=orthogonalEdgeStyle;rounded=0;orthogonalLoop=1;jettySize=auto;html=1;entryX=0.5;entryY=0;entryDx=0;entryDy=0;" edge="1" parent="1" source="Mr9T9dEdlM4_Nd_BWdWu-9" target="Mr9T9dEdlM4_Nd_BWdWu-19">
          <mxGeometry relative="1" as="geometry"/>
        </mxCell>
        <mxCell id="Mr9T9dEdlM4_Nd_BWdWu-22" value="2" style="text;html=1;align=center;verticalAlign=middle;resizable=0;points=[];labelBackgroundColor=#ffffff;" vertex="1" connectable="0" parent="Mr9T9dEdlM4_Nd_BWdWu-21">
          <mxGeometry x="-0.265" y="-2" relative="1" as="geometry">
            <mxPoint as="offset"/>
          </mxGeometry>
        </mxCell>
        <mxCell id="Mr9T9dEdlM4_Nd_BWdWu-9" value="Read Buffer" style="rounded=1;whiteSpace=wrap;html=1;" vertex="1" parent="1">
          <mxGeometry x="317.5" y="220" width="90" height="40" as="geometry"/>
        </mxCell>
        <mxCell id="Mr9T9dEdlM4_Nd_BWdWu-10" value="1.&amp;nbsp;&lt;span style=&quot;color: rgb(51 , 51 , 51) ; font-family: &amp;#34;open sans&amp;#34; , &amp;#34;clear sans&amp;#34; , &amp;#34;helvetica neue&amp;#34; , &amp;#34;helvetica&amp;#34; , &amp;#34;arial&amp;#34; , sans-serif ; font-size: 16px ; text-align: left ; white-space: pre-wrap ; background-color: rgb(255 , 255 , 255)&quot;&gt;先将数据从磁盘读取到操作系统的内核缓冲区&lt;/span&gt;" style="text;html=1;strokeColor=none;fillColor=none;align=center;verticalAlign=middle;whiteSpace=wrap;rounded=0;" vertex="1" parent="1">
          <mxGeometry x="403" y="170" width="340" height="40" as="geometry"/>
        </mxCell>
        <mxCell id="Mr9T9dEdlM4_Nd_BWdWu-19" value="NIC Buffer&lt;br&gt;网卡缓冲区" style="rounded=1;whiteSpace=wrap;html=1;" vertex="1" parent="1">
          <mxGeometry x="317.5" y="340" width="90" height="40" as="geometry"/>
        </mxCell>
        <mxCell id="Mr9T9dEdlM4_Nd_BWdWu-25" value="&lt;font style=&quot;font-size: 16px&quot;&gt;2. 由DMA引擎将数据从内核缓冲区传输到网卡缓冲区&lt;/font&gt;" style="text;html=1;strokeColor=none;fillColor=none;align=center;verticalAlign=middle;whiteSpace=wrap;rounded=0;" vertex="1" parent="1">
          <mxGeometry x="403" y="290" width="377" height="30" as="geometry"/>
        </mxCell>
      </root>
    </mxGraphModel>
  </diagram>
</mxfile>
